<mxfile host="app.diagrams.net" modified="2024-03-04T21:35:14.461Z" agent="Mozilla/5.0 (Windows NT 10.0; Win64; x64) AppleWebKit/537.36 (KHTML, like Gecko) Chrome/122.0.0.0 Safari/537.36" etag="JdlKlqRVtu25v6sfD-cZ" version="24.0.1" type="device">
  <diagram id="C5RBs43oDa-KdzZeNtuy" name="Page-1">
    <mxGraphModel dx="1562" dy="853" grid="1" gridSize="10" guides="1" tooltips="1" connect="1" arrows="1" fold="1" page="1" pageScale="1" pageWidth="827" pageHeight="1169" math="0" shadow="0">
      <root>
        <mxCell id="WIyWlLk6GJQsqaUBKTNV-0" />
        <mxCell id="WIyWlLk6GJQsqaUBKTNV-1" parent="WIyWlLk6GJQsqaUBKTNV-0" />
        <mxCell id="fy3GJB5PiYSoOrDoA2P1-0" value="World" style="swimlane;fontStyle=0;childLayout=stackLayout;horizontal=1;startSize=26;fillColor=none;horizontalStack=0;resizeParent=1;resizeParentMax=0;resizeLast=0;collapsible=1;marginBottom=0;whiteSpace=wrap;html=1;labelBackgroundColor=none;rounded=0;strokeColor=#56517e;sketch=1;curveFitting=1;jiggle=2;" vertex="1" parent="WIyWlLk6GJQsqaUBKTNV-1">
          <mxGeometry x="320" y="30" width="120" height="78" as="geometry" />
        </mxCell>
        <mxCell id="fy3GJB5PiYSoOrDoA2P1-1" value="+ population: INT" style="text;strokeColor=none;fillColor=none;align=left;verticalAlign=top;spacingLeft=4;spacingRight=4;overflow=hidden;rotatable=0;points=[[0,0.5],[1,0.5]];portConstraint=eastwest;whiteSpace=wrap;html=1;labelBackgroundColor=none;sketch=1;curveFitting=1;jiggle=2;rounded=0;" vertex="1" parent="fy3GJB5PiYSoOrDoA2P1-0">
          <mxGeometry y="26" width="120" height="26" as="geometry" />
        </mxCell>
        <mxCell id="fy3GJB5PiYSoOrDoA2P1-2" value="+ language: STR" style="text;strokeColor=none;fillColor=none;align=left;verticalAlign=top;spacingLeft=4;spacingRight=4;overflow=hidden;rotatable=0;points=[[0,0.5],[1,0.5]];portConstraint=eastwest;whiteSpace=wrap;html=1;labelBackgroundColor=none;sketch=1;curveFitting=1;jiggle=2;rounded=0;" vertex="1" parent="fy3GJB5PiYSoOrDoA2P1-0">
          <mxGeometry y="52" width="120" height="26" as="geometry" />
        </mxCell>
        <mxCell id="fy3GJB5PiYSoOrDoA2P1-39" style="edgeStyle=orthogonalEdgeStyle;sketch=1;hachureGap=4;jiggle=2;curveFitting=1;orthogonalLoop=1;jettySize=auto;html=1;exitX=0.5;exitY=0;exitDx=0;exitDy=0;entryX=0;entryY=0.5;entryDx=0;entryDy=0;fillColor=#0050ef;strokeColor=#001DBC;" edge="1" parent="WIyWlLk6GJQsqaUBKTNV-1" source="fy3GJB5PiYSoOrDoA2P1-4" target="fy3GJB5PiYSoOrDoA2P1-1">
          <mxGeometry relative="1" as="geometry" />
        </mxCell>
        <mxCell id="fy3GJB5PiYSoOrDoA2P1-4" value="Continent" style="swimlane;fontStyle=0;childLayout=stackLayout;horizontal=1;startSize=26;fillColor=none;horizontalStack=0;resizeParent=1;resizeParentMax=0;resizeLast=0;collapsible=1;marginBottom=0;whiteSpace=wrap;html=1;labelBackgroundColor=none;sketch=1;curveFitting=1;jiggle=2;rounded=0;strokeColor=#56517e;" vertex="1" parent="WIyWlLk6GJQsqaUBKTNV-1">
          <mxGeometry x="160" y="150" width="140" height="104" as="geometry" />
        </mxCell>
        <mxCell id="fy3GJB5PiYSoOrDoA2P1-5" value="+ name: STR" style="text;strokeColor=none;fillColor=none;align=left;verticalAlign=top;spacingLeft=4;spacingRight=4;overflow=hidden;rotatable=0;points=[[0,0.5],[1,0.5]];portConstraint=eastwest;whiteSpace=wrap;html=1;labelBackgroundColor=none;sketch=1;curveFitting=1;jiggle=2;rounded=0;" vertex="1" parent="fy3GJB5PiYSoOrDoA2P1-4">
          <mxGeometry y="26" width="140" height="26" as="geometry" />
        </mxCell>
        <mxCell id="fy3GJB5PiYSoOrDoA2P1-6" value="+ population: INT" style="text;strokeColor=none;fillColor=none;align=left;verticalAlign=top;spacingLeft=4;spacingRight=4;overflow=hidden;rotatable=0;points=[[0,0.5],[1,0.5]];portConstraint=eastwest;whiteSpace=wrap;html=1;labelBackgroundColor=none;sketch=1;curveFitting=1;jiggle=2;rounded=0;" vertex="1" parent="fy3GJB5PiYSoOrDoA2P1-4">
          <mxGeometry y="52" width="140" height="26" as="geometry" />
        </mxCell>
        <mxCell id="fy3GJB5PiYSoOrDoA2P1-7" value="+ language: STR" style="text;strokeColor=none;fillColor=none;align=left;verticalAlign=top;spacingLeft=4;spacingRight=4;overflow=hidden;rotatable=0;points=[[0,0.5],[1,0.5]];portConstraint=eastwest;whiteSpace=wrap;html=1;labelBackgroundColor=none;sketch=1;curveFitting=1;jiggle=2;rounded=0;" vertex="1" parent="fy3GJB5PiYSoOrDoA2P1-4">
          <mxGeometry y="78" width="140" height="26" as="geometry" />
        </mxCell>
        <mxCell id="fy3GJB5PiYSoOrDoA2P1-40" style="edgeStyle=orthogonalEdgeStyle;sketch=1;hachureGap=4;jiggle=2;curveFitting=1;orthogonalLoop=1;jettySize=auto;html=1;exitX=0.5;exitY=0;exitDx=0;exitDy=0;entryX=1;entryY=0.5;entryDx=0;entryDy=0;fillColor=#0050ef;strokeColor=#001DBC;" edge="1" parent="WIyWlLk6GJQsqaUBKTNV-1" source="fy3GJB5PiYSoOrDoA2P1-8" target="fy3GJB5PiYSoOrDoA2P1-0">
          <mxGeometry relative="1" as="geometry" />
        </mxCell>
        <mxCell id="fy3GJB5PiYSoOrDoA2P1-8" value="Region" style="swimlane;fontStyle=0;childLayout=stackLayout;horizontal=1;startSize=26;fillColor=none;horizontalStack=0;resizeParent=1;resizeParentMax=0;resizeLast=0;collapsible=1;marginBottom=0;whiteSpace=wrap;html=1;labelBackgroundColor=none;sketch=1;curveFitting=1;jiggle=2;rounded=0;strokeColor=#56517e;" vertex="1" parent="WIyWlLk6GJQsqaUBKTNV-1">
          <mxGeometry x="460" y="150" width="140" height="104" as="geometry" />
        </mxCell>
        <mxCell id="fy3GJB5PiYSoOrDoA2P1-9" value="+ name: STR" style="text;strokeColor=none;fillColor=none;align=left;verticalAlign=top;spacingLeft=4;spacingRight=4;overflow=hidden;rotatable=0;points=[[0,0.5],[1,0.5]];portConstraint=eastwest;whiteSpace=wrap;html=1;labelBackgroundColor=none;sketch=1;curveFitting=1;jiggle=2;rounded=0;" vertex="1" parent="fy3GJB5PiYSoOrDoA2P1-8">
          <mxGeometry y="26" width="140" height="26" as="geometry" />
        </mxCell>
        <mxCell id="fy3GJB5PiYSoOrDoA2P1-10" value="+ population: INT" style="text;strokeColor=none;fillColor=none;align=left;verticalAlign=top;spacingLeft=4;spacingRight=4;overflow=hidden;rotatable=0;points=[[0,0.5],[1,0.5]];portConstraint=eastwest;whiteSpace=wrap;html=1;labelBackgroundColor=none;sketch=1;curveFitting=1;jiggle=2;rounded=0;" vertex="1" parent="fy3GJB5PiYSoOrDoA2P1-8">
          <mxGeometry y="52" width="140" height="26" as="geometry" />
        </mxCell>
        <mxCell id="fy3GJB5PiYSoOrDoA2P1-11" value="+ language: STR" style="text;strokeColor=none;fillColor=none;align=left;verticalAlign=top;spacingLeft=4;spacingRight=4;overflow=hidden;rotatable=0;points=[[0,0.5],[1,0.5]];portConstraint=eastwest;whiteSpace=wrap;html=1;labelBackgroundColor=none;sketch=1;curveFitting=1;jiggle=2;rounded=0;" vertex="1" parent="fy3GJB5PiYSoOrDoA2P1-8">
          <mxGeometry y="78" width="140" height="26" as="geometry" />
        </mxCell>
        <mxCell id="fy3GJB5PiYSoOrDoA2P1-12" value="Country" style="swimlane;fontStyle=0;childLayout=stackLayout;horizontal=1;startSize=30;fillColor=none;horizontalStack=0;resizeParent=1;resizeParentMax=0;resizeLast=0;collapsible=1;marginBottom=0;whiteSpace=wrap;html=1;labelBackgroundColor=none;sketch=1;curveFitting=1;jiggle=2;rounded=0;strokeColor=#56517e;" vertex="1" parent="WIyWlLk6GJQsqaUBKTNV-1">
          <mxGeometry x="310" y="307" width="140" height="212" as="geometry">
            <mxRectangle x="310" y="260" width="80" height="30" as="alternateBounds" />
          </mxGeometry>
        </mxCell>
        <mxCell id="fy3GJB5PiYSoOrDoA2P1-13" value="+ code: INT" style="text;strokeColor=none;fillColor=none;align=left;verticalAlign=top;spacingLeft=4;spacingRight=4;overflow=hidden;rotatable=0;points=[[0,0.5],[1,0.5]];portConstraint=eastwest;whiteSpace=wrap;html=1;labelBackgroundColor=none;sketch=1;curveFitting=1;jiggle=2;rounded=0;" vertex="1" parent="fy3GJB5PiYSoOrDoA2P1-12">
          <mxGeometry y="30" width="140" height="26" as="geometry" />
        </mxCell>
        <mxCell id="fy3GJB5PiYSoOrDoA2P1-14" value="+ name: STR" style="text;strokeColor=none;fillColor=none;align=left;verticalAlign=top;spacingLeft=4;spacingRight=4;overflow=hidden;rotatable=0;points=[[0,0.5],[1,0.5]];portConstraint=eastwest;whiteSpace=wrap;html=1;labelBackgroundColor=none;sketch=1;curveFitting=1;jiggle=2;rounded=0;" vertex="1" parent="fy3GJB5PiYSoOrDoA2P1-12">
          <mxGeometry y="56" width="140" height="26" as="geometry" />
        </mxCell>
        <mxCell id="fy3GJB5PiYSoOrDoA2P1-15" value="+ continent: STR" style="text;strokeColor=none;fillColor=none;align=left;verticalAlign=top;spacingLeft=4;spacingRight=4;overflow=hidden;rotatable=0;points=[[0,0.5],[1,0.5]];portConstraint=eastwest;whiteSpace=wrap;html=1;labelBackgroundColor=none;sketch=1;curveFitting=1;jiggle=2;rounded=0;" vertex="1" parent="fy3GJB5PiYSoOrDoA2P1-12">
          <mxGeometry y="82" width="140" height="28" as="geometry" />
        </mxCell>
        <mxCell id="fy3GJB5PiYSoOrDoA2P1-22" value="+ population: INT" style="text;strokeColor=none;fillColor=none;align=left;verticalAlign=top;spacingLeft=4;spacingRight=4;overflow=hidden;rotatable=0;points=[[0,0.5],[1,0.5]];portConstraint=eastwest;whiteSpace=wrap;html=1;" vertex="1" parent="fy3GJB5PiYSoOrDoA2P1-12">
          <mxGeometry y="110" width="140" height="26" as="geometry" />
        </mxCell>
        <mxCell id="fy3GJB5PiYSoOrDoA2P1-20" value="+ region: STR" style="text;strokeColor=none;fillColor=none;align=left;verticalAlign=top;spacingLeft=4;spacingRight=4;overflow=hidden;rotatable=0;points=[[0,0.5],[1,0.5]];portConstraint=eastwest;whiteSpace=wrap;html=1;" vertex="1" parent="fy3GJB5PiYSoOrDoA2P1-12">
          <mxGeometry y="136" width="140" height="26" as="geometry" />
        </mxCell>
        <mxCell id="fy3GJB5PiYSoOrDoA2P1-21" value="+ capital city: STR" style="text;strokeColor=none;fillColor=none;align=left;verticalAlign=top;spacingLeft=4;spacingRight=4;overflow=hidden;rotatable=0;points=[[0,0.5],[1,0.5]];portConstraint=eastwest;whiteSpace=wrap;html=1;" vertex="1" parent="fy3GJB5PiYSoOrDoA2P1-12">
          <mxGeometry y="162" width="140" height="26" as="geometry" />
        </mxCell>
        <mxCell id="fy3GJB5PiYSoOrDoA2P1-19" value="+ language: STR" style="text;strokeColor=none;fillColor=none;align=left;verticalAlign=top;spacingLeft=4;spacingRight=4;overflow=hidden;rotatable=0;points=[[0,0.5],[1,0.5]];portConstraint=eastwest;whiteSpace=wrap;html=1;" vertex="1" parent="fy3GJB5PiYSoOrDoA2P1-12">
          <mxGeometry y="188" width="140" height="24" as="geometry" />
        </mxCell>
        <mxCell id="fy3GJB5PiYSoOrDoA2P1-23" value="District" style="swimlane;fontStyle=0;childLayout=stackLayout;horizontal=1;startSize=26;fillColor=none;horizontalStack=0;resizeParent=1;resizeParentMax=0;resizeLast=0;collapsible=1;marginBottom=0;whiteSpace=wrap;html=1;sketch=1;hachureGap=4;jiggle=2;curveFitting=1;strokeColor=#56517e;" vertex="1" parent="WIyWlLk6GJQsqaUBKTNV-1">
          <mxGeometry x="40" y="370" width="140" height="104" as="geometry" />
        </mxCell>
        <mxCell id="fy3GJB5PiYSoOrDoA2P1-24" value="+ name: STR" style="text;strokeColor=none;fillColor=none;align=left;verticalAlign=top;spacingLeft=4;spacingRight=4;overflow=hidden;rotatable=0;points=[[0,0.5],[1,0.5]];portConstraint=eastwest;whiteSpace=wrap;html=1;" vertex="1" parent="fy3GJB5PiYSoOrDoA2P1-23">
          <mxGeometry y="26" width="140" height="26" as="geometry" />
        </mxCell>
        <mxCell id="fy3GJB5PiYSoOrDoA2P1-25" value="+ population: INT" style="text;strokeColor=none;fillColor=none;align=left;verticalAlign=top;spacingLeft=4;spacingRight=4;overflow=hidden;rotatable=0;points=[[0,0.5],[1,0.5]];portConstraint=eastwest;whiteSpace=wrap;html=1;" vertex="1" parent="fy3GJB5PiYSoOrDoA2P1-23">
          <mxGeometry y="52" width="140" height="26" as="geometry" />
        </mxCell>
        <mxCell id="fy3GJB5PiYSoOrDoA2P1-26" value="+ language: STR" style="text;strokeColor=none;fillColor=none;align=left;verticalAlign=top;spacingLeft=4;spacingRight=4;overflow=hidden;rotatable=0;points=[[0,0.5],[1,0.5]];portConstraint=eastwest;whiteSpace=wrap;html=1;" vertex="1" parent="fy3GJB5PiYSoOrDoA2P1-23">
          <mxGeometry y="78" width="140" height="26" as="geometry" />
        </mxCell>
        <mxCell id="fy3GJB5PiYSoOrDoA2P1-27" value="City" style="swimlane;fontStyle=0;childLayout=stackLayout;horizontal=1;startSize=26;fillColor=none;horizontalStack=0;resizeParent=1;resizeParentMax=0;resizeLast=0;collapsible=1;marginBottom=0;whiteSpace=wrap;html=1;sketch=1;hachureGap=4;jiggle=2;curveFitting=1;strokeColor=#56517e;" vertex="1" parent="WIyWlLk6GJQsqaUBKTNV-1">
          <mxGeometry x="40" y="570" width="140" height="146" as="geometry" />
        </mxCell>
        <mxCell id="fy3GJB5PiYSoOrDoA2P1-28" value="+ name: STR" style="text;strokeColor=none;fillColor=none;align=left;verticalAlign=top;spacingLeft=4;spacingRight=4;overflow=hidden;rotatable=0;points=[[0,0.5],[1,0.5]];portConstraint=eastwest;whiteSpace=wrap;html=1;" vertex="1" parent="fy3GJB5PiYSoOrDoA2P1-27">
          <mxGeometry y="26" width="140" height="26" as="geometry" />
        </mxCell>
        <mxCell id="fy3GJB5PiYSoOrDoA2P1-29" value="+ isCapital: BOOL" style="text;strokeColor=none;fillColor=none;align=left;verticalAlign=top;spacingLeft=4;spacingRight=4;overflow=hidden;rotatable=0;points=[[0,0.5],[1,0.5]];portConstraint=eastwest;whiteSpace=wrap;html=1;" vertex="1" parent="fy3GJB5PiYSoOrDoA2P1-27">
          <mxGeometry y="52" width="140" height="26" as="geometry" />
        </mxCell>
        <mxCell id="fy3GJB5PiYSoOrDoA2P1-30" value="+ country: STR" style="text;strokeColor=none;fillColor=none;align=left;verticalAlign=top;spacingLeft=4;spacingRight=4;overflow=hidden;rotatable=0;points=[[0,0.5],[1,0.5]];portConstraint=eastwest;whiteSpace=wrap;html=1;" vertex="1" parent="fy3GJB5PiYSoOrDoA2P1-27">
          <mxGeometry y="78" width="140" height="22" as="geometry" />
        </mxCell>
        <mxCell id="fy3GJB5PiYSoOrDoA2P1-35" value="+ district: STR" style="text;strokeColor=none;fillColor=none;align=left;verticalAlign=top;spacingLeft=4;spacingRight=4;overflow=hidden;rotatable=0;points=[[0,0.5],[1,0.5]];portConstraint=eastwest;whiteSpace=wrap;html=1;" vertex="1" parent="fy3GJB5PiYSoOrDoA2P1-27">
          <mxGeometry y="100" width="140" height="20" as="geometry" />
        </mxCell>
        <mxCell id="fy3GJB5PiYSoOrDoA2P1-36" value="+ population: INT" style="text;strokeColor=none;fillColor=none;align=left;verticalAlign=top;spacingLeft=4;spacingRight=4;overflow=hidden;rotatable=0;points=[[0,0.5],[1,0.5]];portConstraint=eastwest;whiteSpace=wrap;html=1;" vertex="1" parent="fy3GJB5PiYSoOrDoA2P1-27">
          <mxGeometry y="120" width="140" height="26" as="geometry" />
        </mxCell>
        <mxCell id="fy3GJB5PiYSoOrDoA2P1-41" style="edgeStyle=orthogonalEdgeStyle;sketch=1;hachureGap=4;jiggle=2;curveFitting=1;orthogonalLoop=1;jettySize=auto;html=1;exitX=1;exitY=0.5;exitDx=0;exitDy=0;entryX=0.5;entryY=1;entryDx=0;entryDy=0;fillColor=#0050ef;strokeColor=#001DBC;" edge="1" parent="WIyWlLk6GJQsqaUBKTNV-1" source="fy3GJB5PiYSoOrDoA2P1-13" target="fy3GJB5PiYSoOrDoA2P1-8">
          <mxGeometry relative="1" as="geometry" />
        </mxCell>
        <mxCell id="fy3GJB5PiYSoOrDoA2P1-42" style="edgeStyle=orthogonalEdgeStyle;sketch=1;hachureGap=4;jiggle=2;curveFitting=1;orthogonalLoop=1;jettySize=auto;html=1;exitX=0;exitY=0.5;exitDx=0;exitDy=0;entryX=0.5;entryY=1;entryDx=0;entryDy=0;fillColor=#0050ef;strokeColor=#001DBC;" edge="1" parent="WIyWlLk6GJQsqaUBKTNV-1" source="fy3GJB5PiYSoOrDoA2P1-13" target="fy3GJB5PiYSoOrDoA2P1-4">
          <mxGeometry relative="1" as="geometry" />
        </mxCell>
        <mxCell id="fy3GJB5PiYSoOrDoA2P1-44" value="" style="endArrow=classic;html=1;sketch=1;hachureGap=4;jiggle=2;curveFitting=1;exitX=0.5;exitY=0;exitDx=0;exitDy=0;fillColor=#0050ef;strokeColor=#001DBC;" edge="1" parent="WIyWlLk6GJQsqaUBKTNV-1" source="fy3GJB5PiYSoOrDoA2P1-27">
          <mxGeometry width="50" height="50" relative="1" as="geometry">
            <mxPoint x="390" y="470" as="sourcePoint" />
            <mxPoint x="110" y="477" as="targetPoint" />
          </mxGeometry>
        </mxCell>
        <mxCell id="fy3GJB5PiYSoOrDoA2P1-46" value="" style="endArrow=classic;html=1;sketch=1;hachureGap=4;jiggle=2;curveFitting=1;exitX=1;exitY=0.5;exitDx=0;exitDy=0;fillColor=#0050ef;strokeColor=#001DBC;" edge="1" parent="WIyWlLk6GJQsqaUBKTNV-1" source="fy3GJB5PiYSoOrDoA2P1-25">
          <mxGeometry width="50" height="50" relative="1" as="geometry">
            <mxPoint x="390" y="460" as="sourcePoint" />
            <mxPoint x="310" y="435" as="targetPoint" />
          </mxGeometry>
        </mxCell>
        <mxCell id="fy3GJB5PiYSoOrDoA2P1-48" value="&lt;font class=&quot;cursor-hover&quot; style=&quot;font-size: 13px;&quot;&gt;1&lt;/font&gt;" style="text;html=1;align=center;verticalAlign=middle;whiteSpace=wrap;rounded=0;fontColor=#463DC4;fontStyle=1" vertex="1" parent="WIyWlLk6GJQsqaUBKTNV-1">
          <mxGeometry x="440" y="40" width="40" height="30" as="geometry" />
        </mxCell>
        <mxCell id="fy3GJB5PiYSoOrDoA2P1-49" value="&lt;font style=&quot;font-size: 13px;&quot; class=&quot;cursor-hover&quot;&gt;1&lt;/font&gt;" style="text;html=1;align=center;verticalAlign=middle;whiteSpace=wrap;rounded=0;fontColor=#463DC4;fontStyle=1" vertex="1" parent="WIyWlLk6GJQsqaUBKTNV-1">
          <mxGeometry x="280" y="40" width="40" height="30" as="geometry" />
        </mxCell>
        <mxCell id="fy3GJB5PiYSoOrDoA2P1-50" value="&lt;font style=&quot;font-size: 15px;&quot;&gt;*&lt;/font&gt;" style="text;html=1;align=center;verticalAlign=middle;whiteSpace=wrap;rounded=0;fontColor=#463DC4;fontStyle=1" vertex="1" parent="WIyWlLk6GJQsqaUBKTNV-1">
          <mxGeometry x="530" y="120" width="40" height="30" as="geometry" />
        </mxCell>
        <mxCell id="fy3GJB5PiYSoOrDoA2P1-51" value="&lt;font style=&quot;font-size: 15px;&quot;&gt;*&lt;/font&gt;" style="text;html=1;align=center;verticalAlign=middle;whiteSpace=wrap;rounded=0;fontColor=#463DC4;fontStyle=1" vertex="1" parent="WIyWlLk6GJQsqaUBKTNV-1">
          <mxGeometry x="190" y="120" width="40" height="30" as="geometry" />
        </mxCell>
        <mxCell id="fy3GJB5PiYSoOrDoA2P1-52" value="&lt;font style=&quot;font-size: 13px;&quot; class=&quot;cursor-hover&quot;&gt;1&lt;/font&gt;" style="text;html=1;align=center;verticalAlign=middle;whiteSpace=wrap;rounded=0;fontColor=#463DC4;fontStyle=1" vertex="1" parent="WIyWlLk6GJQsqaUBKTNV-1">
          <mxGeometry x="190" y="254" width="40" height="30" as="geometry" />
        </mxCell>
        <mxCell id="fy3GJB5PiYSoOrDoA2P1-53" value="&lt;font style=&quot;font-size: 13px;&quot; class=&quot;cursor-hover&quot;&gt;1&lt;/font&gt;" style="text;html=1;align=center;verticalAlign=middle;whiteSpace=wrap;rounded=0;fontColor=#463DC4;fontStyle=1" vertex="1" parent="WIyWlLk6GJQsqaUBKTNV-1">
          <mxGeometry x="530" y="254" width="40" height="30" as="geometry" />
        </mxCell>
        <mxCell id="fy3GJB5PiYSoOrDoA2P1-54" value="&lt;font style=&quot;font-size: 12px;&quot;&gt;&lt;font style=&quot;font-size: 12px;&quot; class=&quot;cursor-hover&quot;&gt;1 &lt;/font&gt;&lt;font style=&quot;font-size: 12px;&quot; class=&quot;cursor-hover&quot;&gt;... *&lt;/font&gt;&lt;/font&gt;" style="text;html=1;align=center;verticalAlign=middle;whiteSpace=wrap;rounded=0;fontColor=#463DC4;fontStyle=1" vertex="1" parent="WIyWlLk6GJQsqaUBKTNV-1">
          <mxGeometry x="450" y="350" width="40" height="30" as="geometry" />
        </mxCell>
        <mxCell id="fy3GJB5PiYSoOrDoA2P1-55" value="&lt;font style=&quot;font-size: 12px;&quot;&gt;&lt;font style=&quot;font-size: 12px;&quot; class=&quot;cursor-hover&quot;&gt;1 &lt;/font&gt;&lt;font style=&quot;font-size: 12px;&quot; class=&quot;cursor-hover&quot;&gt;... *&lt;/font&gt;&lt;/font&gt;" style="text;html=1;align=center;verticalAlign=middle;whiteSpace=wrap;rounded=0;fontColor=#463DC4;fontStyle=1" vertex="1" parent="WIyWlLk6GJQsqaUBKTNV-1">
          <mxGeometry x="270" y="350" width="40" height="30" as="geometry" />
        </mxCell>
        <mxCell id="fy3GJB5PiYSoOrDoA2P1-56" value="&lt;font style=&quot;font-size: 13px;&quot; class=&quot;cursor-hover&quot;&gt;1&lt;/font&gt;" style="text;html=1;align=center;verticalAlign=middle;whiteSpace=wrap;rounded=0;fontColor=#463DC4;fontStyle=1" vertex="1" parent="WIyWlLk6GJQsqaUBKTNV-1">
          <mxGeometry x="70" y="474" width="40" height="30" as="geometry" />
        </mxCell>
        <mxCell id="fy3GJB5PiYSoOrDoA2P1-58" value="&lt;font style=&quot;font-size: 12px;&quot;&gt;&lt;font style=&quot;font-size: 12px;&quot; class=&quot;cursor-hover&quot;&gt;1 &lt;/font&gt;&lt;font style=&quot;font-size: 12px;&quot; class=&quot;cursor-hover&quot;&gt;... *&lt;/font&gt;&lt;/font&gt;" style="text;html=1;align=center;verticalAlign=middle;whiteSpace=wrap;rounded=0;fontColor=#463DC4;fontStyle=1" vertex="1" parent="WIyWlLk6GJQsqaUBKTNV-1">
          <mxGeometry x="70" y="540" width="40" height="30" as="geometry" />
        </mxCell>
        <mxCell id="fy3GJB5PiYSoOrDoA2P1-59" value="&lt;font style=&quot;font-size: 13px;&quot; class=&quot;cursor-hover&quot;&gt;1&lt;/font&gt;" style="text;html=1;align=center;verticalAlign=middle;whiteSpace=wrap;rounded=0;fontColor=#463DC4;fontStyle=1" vertex="1" parent="WIyWlLk6GJQsqaUBKTNV-1">
          <mxGeometry x="270" y="407" width="40" height="30" as="geometry" />
        </mxCell>
        <mxCell id="fy3GJB5PiYSoOrDoA2P1-60" value="&lt;font style=&quot;font-size: 12px;&quot;&gt;&lt;font style=&quot;font-size: 12px;&quot; class=&quot;cursor-hover&quot;&gt;1 &lt;/font&gt;&lt;font style=&quot;font-size: 12px;&quot; class=&quot;cursor-hover&quot;&gt;... *&lt;/font&gt;&lt;/font&gt;" style="text;html=1;align=center;verticalAlign=middle;whiteSpace=wrap;rounded=0;fontColor=#463DC4;fontStyle=1" vertex="1" parent="WIyWlLk6GJQsqaUBKTNV-1">
          <mxGeometry x="180" y="407" width="40" height="30" as="geometry" />
        </mxCell>
        <mxCell id="fy3GJB5PiYSoOrDoA2P1-61" value="Database" style="swimlane;fontStyle=0;childLayout=stackLayout;horizontal=1;startSize=26;fillColor=#76608a;horizontalStack=0;resizeParent=1;resizeParentMax=0;resizeLast=0;collapsible=1;marginBottom=0;whiteSpace=wrap;html=1;hachureGap=4;fontColor=#ffffff;strokeColor=#432D57;" vertex="1" parent="WIyWlLk6GJQsqaUBKTNV-1">
          <mxGeometry x="310" y="840" width="140" height="52" as="geometry" />
        </mxCell>
        <mxCell id="fy3GJB5PiYSoOrDoA2P1-62" value="+ data: STR/ INT" style="text;strokeColor=none;fillColor=none;align=left;verticalAlign=top;spacingLeft=4;spacingRight=4;overflow=hidden;rotatable=0;points=[[0,0.5],[1,0.5]];portConstraint=eastwest;whiteSpace=wrap;html=1;" vertex="1" parent="fy3GJB5PiYSoOrDoA2P1-61">
          <mxGeometry y="26" width="140" height="26" as="geometry" />
        </mxCell>
        <mxCell id="fy3GJB5PiYSoOrDoA2P1-76" style="edgeStyle=orthogonalEdgeStyle;sketch=1;hachureGap=4;jiggle=2;curveFitting=1;orthogonalLoop=1;jettySize=auto;html=1;exitX=0.5;exitY=0;exitDx=0;exitDy=0;entryX=0;entryY=0.5;entryDx=0;entryDy=0;fillColor=#0050ef;strokeColor=#001DBC;" edge="1" parent="WIyWlLk6GJQsqaUBKTNV-1" source="fy3GJB5PiYSoOrDoA2P1-65" target="fy3GJB5PiYSoOrDoA2P1-62">
          <mxGeometry relative="1" as="geometry" />
        </mxCell>
        <mxCell id="fy3GJB5PiYSoOrDoA2P1-65" value="Report Generator" style="swimlane;fontStyle=0;childLayout=stackLayout;horizontal=1;startSize=26;fillColor=#76608a;horizontalStack=0;resizeParent=1;resizeParentMax=0;resizeLast=0;collapsible=1;marginBottom=0;whiteSpace=wrap;html=1;hachureGap=4;fontColor=#ffffff;strokeColor=#432D57;" vertex="1" parent="WIyWlLk6GJQsqaUBKTNV-1">
          <mxGeometry x="110" y="958" width="140" height="52" as="geometry" />
        </mxCell>
        <mxCell id="fy3GJB5PiYSoOrDoA2P1-75" style="edgeStyle=orthogonalEdgeStyle;sketch=1;hachureGap=4;jiggle=2;curveFitting=1;orthogonalLoop=1;jettySize=auto;html=1;exitX=0.5;exitY=0;exitDx=0;exitDy=0;entryX=1;entryY=0.5;entryDx=0;entryDy=0;fillColor=#0050ef;strokeColor=#001DBC;" edge="1" parent="WIyWlLk6GJQsqaUBKTNV-1" source="fy3GJB5PiYSoOrDoA2P1-69" target="fy3GJB5PiYSoOrDoA2P1-62">
          <mxGeometry relative="1" as="geometry" />
        </mxCell>
        <mxCell id="fy3GJB5PiYSoOrDoA2P1-69" value="Database Manager" style="swimlane;fontStyle=0;childLayout=stackLayout;horizontal=1;startSize=26;fillColor=#76608a;horizontalStack=0;resizeParent=1;resizeParentMax=0;resizeLast=0;collapsible=1;marginBottom=0;whiteSpace=wrap;html=1;hachureGap=4;fontColor=#ffffff;strokeColor=#432D57;" vertex="1" parent="WIyWlLk6GJQsqaUBKTNV-1">
          <mxGeometry x="510" y="958" width="140" height="52" as="geometry" />
        </mxCell>
        <mxCell id="fy3GJB5PiYSoOrDoA2P1-70" value="User" style="swimlane;fontStyle=0;childLayout=stackLayout;horizontal=1;startSize=26;fillColor=#76608a;horizontalStack=0;resizeParent=1;resizeParentMax=0;resizeLast=0;collapsible=1;marginBottom=0;whiteSpace=wrap;html=1;hachureGap=4;fontColor=#ffffff;strokeColor=#432D57;" vertex="1" parent="WIyWlLk6GJQsqaUBKTNV-1">
          <mxGeometry x="310" y="958" width="140" height="78" as="geometry" />
        </mxCell>
        <mxCell id="fy3GJB5PiYSoOrDoA2P1-71" value="+ username: STR/ INT" style="text;strokeColor=none;fillColor=none;align=left;verticalAlign=top;spacingLeft=4;spacingRight=4;overflow=hidden;rotatable=0;points=[[0,0.5],[1,0.5]];portConstraint=eastwest;whiteSpace=wrap;html=1;" vertex="1" parent="fy3GJB5PiYSoOrDoA2P1-70">
          <mxGeometry y="26" width="140" height="26" as="geometry" />
        </mxCell>
        <mxCell id="fy3GJB5PiYSoOrDoA2P1-72" value="+ password: STR/ INT" style="text;strokeColor=none;fillColor=none;align=left;verticalAlign=top;spacingLeft=4;spacingRight=4;overflow=hidden;rotatable=0;points=[[0,0.5],[1,0.5]];portConstraint=eastwest;whiteSpace=wrap;html=1;" vertex="1" parent="fy3GJB5PiYSoOrDoA2P1-70">
          <mxGeometry y="52" width="140" height="26" as="geometry" />
        </mxCell>
        <mxCell id="fy3GJB5PiYSoOrDoA2P1-74" style="edgeStyle=orthogonalEdgeStyle;sketch=1;hachureGap=4;jiggle=2;curveFitting=1;orthogonalLoop=1;jettySize=auto;html=1;exitX=0.5;exitY=0;exitDx=0;exitDy=0;fillColor=#0050ef;strokeColor=#001DBC;entryX=0.486;entryY=1.069;entryDx=0;entryDy=0;entryPerimeter=0;" edge="1" parent="WIyWlLk6GJQsqaUBKTNV-1" source="fy3GJB5PiYSoOrDoA2P1-70" target="fy3GJB5PiYSoOrDoA2P1-62">
          <mxGeometry relative="1" as="geometry">
            <mxPoint x="380" y="900" as="targetPoint" />
            <Array as="points">
              <mxPoint x="380" y="900" />
              <mxPoint x="378" y="900" />
            </Array>
          </mxGeometry>
        </mxCell>
        <mxCell id="fy3GJB5PiYSoOrDoA2P1-77" value="&lt;font style=&quot;font-size: 13px;&quot; class=&quot;cursor-hover&quot;&gt;1&lt;/font&gt;" style="text;html=1;align=center;verticalAlign=middle;whiteSpace=wrap;rounded=0;fontColor=#463DC4;fontStyle=1" vertex="1" parent="WIyWlLk6GJQsqaUBKTNV-1">
          <mxGeometry x="270" y="851" width="40" height="30" as="geometry" />
        </mxCell>
        <mxCell id="fy3GJB5PiYSoOrDoA2P1-79" value="&lt;font style=&quot;font-size: 13px;&quot; class=&quot;cursor-hover&quot;&gt;1&lt;/font&gt;" style="text;html=1;align=center;verticalAlign=middle;whiteSpace=wrap;rounded=0;fontColor=#463DC4;fontStyle=1" vertex="1" parent="WIyWlLk6GJQsqaUBKTNV-1">
          <mxGeometry x="450" y="851" width="40" height="30" as="geometry" />
        </mxCell>
        <mxCell id="fy3GJB5PiYSoOrDoA2P1-81" value="&lt;font style=&quot;font-size: 12px;&quot;&gt;&lt;font style=&quot;font-size: 12px;&quot; class=&quot;cursor-hover&quot;&gt;1 &lt;/font&gt;&lt;font style=&quot;font-size: 12px;&quot; class=&quot;cursor-hover&quot;&gt;... *&lt;/font&gt;&lt;/font&gt;" style="text;html=1;align=center;verticalAlign=middle;whiteSpace=wrap;rounded=0;fontColor=#463DC4;fontStyle=1" vertex="1" parent="WIyWlLk6GJQsqaUBKTNV-1">
          <mxGeometry x="140" y="930" width="40" height="30" as="geometry" />
        </mxCell>
        <mxCell id="fy3GJB5PiYSoOrDoA2P1-82" value="&lt;font style=&quot;font-size: 12px;&quot;&gt;&lt;font style=&quot;font-size: 12px;&quot; class=&quot;cursor-hover&quot;&gt;1 &lt;/font&gt;&lt;font style=&quot;font-size: 12px;&quot; class=&quot;cursor-hover&quot;&gt;... *&lt;/font&gt;&lt;/font&gt;" style="text;html=1;align=center;verticalAlign=middle;whiteSpace=wrap;rounded=0;fontColor=#463DC4;fontStyle=1" vertex="1" parent="WIyWlLk6GJQsqaUBKTNV-1">
          <mxGeometry x="580" y="930" width="40" height="30" as="geometry" />
        </mxCell>
        <mxCell id="fy3GJB5PiYSoOrDoA2P1-83" value="&lt;font style=&quot;font-size: 12px;&quot;&gt;&lt;font style=&quot;font-size: 12px;&quot; class=&quot;cursor-hover&quot;&gt;1 &lt;/font&gt;&lt;font style=&quot;font-size: 12px;&quot; class=&quot;cursor-hover&quot;&gt;... *&lt;/font&gt;&lt;/font&gt;" style="text;html=1;align=center;verticalAlign=middle;whiteSpace=wrap;rounded=0;fontColor=#463DC4;fontStyle=1" vertex="1" parent="WIyWlLk6GJQsqaUBKTNV-1">
          <mxGeometry x="380" y="930" width="40" height="30" as="geometry" />
        </mxCell>
        <mxCell id="fy3GJB5PiYSoOrDoA2P1-84" value="&lt;font style=&quot;font-size: 13px;&quot; class=&quot;cursor-hover&quot;&gt;1&lt;/font&gt;" style="text;html=1;align=center;verticalAlign=middle;whiteSpace=wrap;rounded=0;fontColor=#463DC4;fontStyle=1" vertex="1" parent="WIyWlLk6GJQsqaUBKTNV-1">
          <mxGeometry x="340" y="892" width="40" height="30" as="geometry" />
        </mxCell>
      </root>
    </mxGraphModel>
  </diagram>
</mxfile>
